<svg width="21" height="25" viewBox="0 0 21 25" fill="none" xmlns="http://www.w3.org/2000/svg">
<path d="M20.4185 12.9184C20.2978 12.3695 20.0301 11.9092 19.6164 11.5373C19.2023 11.1654 18.7257 10.9468 18.1861 10.8816C16.4749 10.6957 13.8941 10.6027 10.4433 10.6027C6.99269 10.6027 4.41646 10.6957 2.71439 10.8816C2.1658 10.9468 1.68684 11.1654 1.27746 11.5373C0.868181 11.9093 0.598454 12.3697 0.468183 12.9184C0.226406 13.9974 0.105469 15.625 0.105469 17.8014C0.105469 20.0148 0.226406 21.6425 0.468183 22.6843C0.589267 23.2328 0.856697 23.6935 1.27057 24.0652C1.68445 24.4373 2.16111 24.6511 2.70047 24.707C4.41196 24.9023 6.99299 25 10.4434 25C13.8937 25 16.4752 24.9023 18.186 24.707C18.7256 24.6511 19.1998 24.4373 19.6092 24.0652C20.0186 23.6935 20.2883 23.2328 20.4184 22.6843C20.6602 21.6052 20.7813 19.9777 20.7813 17.8014C20.7812 15.5878 20.6601 13.9601 20.4185 12.9184ZM6.00721 14.3277H4.51448V22.2656H3.11947V14.3277H1.65454V13.0163H6.00726V14.3277H6.00721ZM9.77386 22.2656H8.53224V21.5121C8.03002 22.0796 7.5555 22.3632 7.10909 22.3632C6.68134 22.3632 6.41156 22.191 6.3001 21.847C6.22578 21.6238 6.1884 21.2842 6.1884 20.8285V15.3738H7.43002V20.4519C7.43002 20.7494 7.43471 20.9123 7.4441 20.9402C7.472 21.1355 7.56958 21.2331 7.73708 21.2331C7.98814 21.2331 8.25338 21.0378 8.53229 20.6472V15.3738H9.77391V22.2656H9.77386ZM14.5172 20.2008C14.5172 20.8797 14.4754 21.345 14.3921 21.5962C14.2336 22.1074 13.9037 22.3632 13.4015 22.3632C12.955 22.3632 12.5226 22.1074 12.1039 21.5962V22.2657H10.8624V13.0163H12.1039V16.0437C12.504 15.5417 12.9363 15.2905 13.4015 15.2905C13.9037 15.2905 14.2336 15.551 14.3921 16.0718C14.4754 16.3136 14.5172 16.7739 14.5172 17.4529V20.2008ZM19.2326 19.057H16.7355V20.2707C16.7355 20.9124 16.9492 21.2331 17.3771 21.2331C17.684 21.2331 17.8701 21.0659 17.9352 20.7308C17.9535 20.6379 17.9631 20.3543 17.9631 19.88H19.2326V20.0613C19.2326 20.5171 19.2231 20.7867 19.2046 20.8706C19.1769 21.1214 19.0795 21.3726 18.9117 21.6238C18.5769 22.1167 18.0742 22.3632 17.4047 22.3632C16.7633 22.3632 16.2609 22.126 15.8981 21.6519C15.6285 21.3077 15.4937 20.7683 15.4937 20.0335V17.6198C15.4937 16.8851 15.6238 16.3457 15.884 16.0015C16.2469 15.5273 16.7445 15.2902 17.3771 15.2902C18.0004 15.2902 18.4937 15.5273 18.8559 16.0015C19.1073 16.3457 19.2326 16.8851 19.2326 17.6198V19.057Z" fill="#9A9C9E"/>
<path d="M12.7313 16.4203C12.5172 16.4203 12.3082 16.5229 12.1035 16.7273V20.9263C12.3082 21.1309 12.5172 21.2331 12.7313 21.2331C13.0938 21.2331 13.2756 20.9218 13.2756 20.2984V17.355C13.2756 16.7318 13.0942 16.4203 12.7313 16.4203Z" fill="#9A9C9E"/>
<path d="M17.3641 16.4203C16.9456 16.4203 16.7363 16.7366 16.7363 17.3687V18.0105H17.9918V17.3687C17.9918 16.7363 17.7825 16.4203 17.3641 16.4203Z" fill="#9A9C9E"/>
<path d="M5.19737 5.56639V9.34721H6.59238V5.56639L8.28018 0H6.85722L5.90878 3.66912L4.91817 0H3.43945C3.6999 0.781329 4.00217 1.65086 4.34631 2.60888C4.7835 3.89228 5.067 4.8783 5.19737 5.56639Z" fill="#9A9C9E"/>
<path d="M10.1504 9.4449C10.7921 9.4449 11.2849 9.20772 11.6291 8.7334C11.8896 8.38926 12.0197 7.84047 12.0197 7.08724V4.64572C12.0197 3.90177 11.8893 3.35753 11.6291 3.01338C11.2849 2.53906 10.7921 2.30188 10.1504 2.30188C9.52707 2.30188 9.03872 2.53906 8.68544 3.01338C8.42514 3.35753 8.29492 3.90177 8.29492 4.64572V7.08719C8.29492 7.83114 8.425 8.37997 8.68544 8.73335C9.03887 9.20772 9.52702 9.4449 10.1504 9.4449ZM9.55037 4.39456C9.55037 3.75279 9.75037 3.4319 10.1504 3.4319C10.5504 3.4319 10.7502 3.75279 10.7502 4.39456V7.32418C10.7502 7.97543 10.5504 8.30072 10.1504 8.30072C9.75037 8.30072 9.55037 7.97523 9.55037 7.32418V4.39456Z" fill="#9A9C9E"/>
<path d="M13.9855 9.44489C14.4509 9.44489 14.93 9.15655 15.4228 8.57976V9.34707H16.6923V2.38562H15.4228V7.70085C15.1437 8.10085 14.8788 8.30065 14.6273 8.30065C14.4598 8.30065 14.3621 8.19838 14.3343 7.99379C14.325 7.97517 14.3203 7.81226 14.3203 7.50545V2.38562H13.0508V7.88238C13.0508 8.3566 13.0883 8.70525 13.1625 8.9286C13.2835 9.27275 13.5578 9.44489 13.9855 9.44489Z" fill="#9A9C9E"/>
</svg>
