<svg width="26" height="25" viewBox="0 0 26 25" fill="none" xmlns="http://www.w3.org/2000/svg">
<path d="M25.5838 7.35005C25.5253 6.0217 25.3105 5.10848 25.0028 4.31716C24.6853 3.47719 24.1969 2.72517 23.5571 2.10001C22.9319 1.46513 22.175 0.97179 21.3447 0.659306C20.5488 0.351592 19.6404 0.136783 18.312 0.0782163C16.9738 0.0146894 16.5489 0 13.1547 0C9.76052 0 9.33567 0.0146894 8.00237 0.0732563C6.67404 0.131823 5.76081 0.346823 4.96969 0.654346C4.12953 0.97179 3.37751 1.46017 2.75235 2.10001C2.11747 2.72517 1.62432 3.48215 1.31165 4.31239C1.00394 5.10848 0.789127 6.01674 0.73056 7.34509C0.667033 8.68335 0.652344 9.1082 0.652344 12.5024C0.652344 15.8966 0.667033 16.3215 0.7256 17.6548C0.784167 18.9831 0.999166 19.8963 1.30688 20.6876C1.62432 21.5276 2.11747 22.2796 2.75235 22.9048C3.37751 23.5397 4.13449 24.033 4.96473 24.3455C5.76081 24.6532 6.66908 24.868 7.99761 24.9266C9.33071 24.9853 9.75575 24.9998 13.15 24.9998C16.5442 24.9998 16.969 24.9853 18.3023 24.9266C19.6306 24.868 20.5439 24.6532 21.335 24.3455C23.0151 23.6959 24.3435 22.3676 24.993 20.6876C25.3005 19.8916 25.5155 18.9831 25.5741 17.6548C25.6327 16.3215 25.6474 15.8966 25.6474 12.5024C25.6474 9.1082 25.6424 8.68335 25.5838 7.35005ZM23.3326 17.5571C23.2788 18.778 23.0737 19.4373 22.9027 19.8769C22.4827 20.966 21.6183 21.8304 20.5292 22.2504C20.0896 22.4214 19.4256 22.6265 18.2094 22.6801C16.8908 22.7388 16.4953 22.7533 13.1597 22.7533C9.82405 22.7533 9.42362 22.7388 8.10978 22.6801C6.88884 22.6265 6.22954 22.4214 5.79 22.2504C5.24802 22.0501 4.75469 21.7327 4.35426 21.3176C3.93914 20.9122 3.6217 20.4238 3.42139 19.8818C3.25046 19.4423 3.04538 18.778 2.99177 17.562C2.93301 16.2434 2.91851 15.8478 2.91851 12.5121C2.91851 9.17649 2.93301 8.77606 2.99177 7.46241C3.04538 6.24147 3.25046 5.58217 3.42139 5.14263C3.6217 4.60046 3.93914 4.10731 4.35922 3.70669C4.76442 3.29157 5.25279 2.97413 5.79496 2.77401C6.2345 2.60308 6.89876 2.398 8.11474 2.3442C9.43335 2.28563 9.82901 2.27094 13.1645 2.27094C16.505 2.27094 16.9005 2.28563 18.2144 2.3442C19.4353 2.398 20.0946 2.60308 20.5341 2.77401C21.0761 2.97413 21.5694 3.29157 21.9699 3.70669C22.385 4.11208 22.7024 4.60046 22.9027 5.14263C23.0737 5.58217 23.2788 6.24624 23.3326 7.46241C23.3911 8.78102 23.4058 9.17649 23.4058 12.5121C23.4058 15.8478 23.3911 16.2385 23.3326 17.5571Z" fill="#9A9C9E"/>
<path d="M13.1546 6.08026C9.60907 6.08026 6.73242 8.95672 6.73242 12.5024C6.73242 16.0481 9.60907 18.9246 13.1546 18.9246C16.7002 18.9246 19.5767 16.0481 19.5767 12.5024C19.5767 8.95672 16.7002 6.08026 13.1546 6.08026ZM13.1546 16.6683C10.8544 16.6683 8.98868 14.8027 8.98868 12.5024C8.98868 10.2021 10.8544 8.33652 13.1546 8.33652C15.4549 8.33652 17.3204 10.2021 17.3204 12.5024C17.3204 14.8027 15.4549 16.6683 13.1546 16.6683Z" fill="#9A9C9E"/>
<path d="M21.3308 5.82637C21.3308 6.65432 20.6595 7.32565 19.8313 7.32565C19.0034 7.32565 18.332 6.65432 18.332 5.82637C18.332 4.99822 19.0034 4.32709 19.8313 4.32709C20.6595 4.32709 21.3308 4.99822 21.3308 5.82637Z" fill="#9A9C9E"/>
</svg>
