<svg width="30" height="30" viewBox="0 0 30 30" fill="none" xmlns="http://www.w3.org/2000/svg">
<path d="M15.4998 14.645C17.6924 14.645 19.4701 12.4859 19.4701 9.82253C19.4701 7.15909 18.8865 5 15.4998 5C12.113 5 11.5293 7.15909 11.5293 9.82253C11.5293 12.4859 13.307 14.645 15.4998 14.645Z" fill="black"/>
<path d="M8.00078 22.0084C8.0001 21.846 7.99943 21.9626 8.00078 22.0084V22.0084Z" fill="black"/>
<path d="M22.999 22.1352C23.0012 22.0907 22.9998 21.8267 22.999 22.1352V22.1352Z" fill="black"/>
<path d="M22.9907 21.8136C22.9172 17.1739 22.3112 15.8519 17.6743 15.015C17.6743 15.015 17.0216 15.8467 15.5002 15.8467C13.9788 15.8467 13.326 15.015 13.326 15.015C8.73968 15.8427 8.09688 17.1452 8.01236 21.6629C8.00543 22.0318 8.00222 22.0512 8.00098 22.0084C8.00126 22.0886 8.0016 22.237 8.0016 22.4958C8.0016 22.4958 9.10554 24.7213 15.5002 24.7213C21.8947 24.7213 22.9988 22.4958 22.9988 22.4958C22.9988 22.3295 22.9989 22.2139 22.9991 22.1352C22.9978 22.1617 22.9954 22.1104 22.9907 21.8136Z" fill="black"/>
</svg>
