<svg width="30" height="30" viewBox="0 0 30 30" fill="none" xmlns="http://www.w3.org/2000/svg">
<path d="M17.9434 15.5505L23.0002 18.3304V12.6532L17.9434 15.5505Z" fill="black"/>
<path d="M8 12.6532V18.3304L13.0569 15.5505L8 12.6532Z" fill="black"/>
<path d="M22.0627 11H8.9377C8.46988 11 8.09863 11.3033 8.02832 11.6938L15.5002 15.9745L22.9721 11.6938C22.9018 11.3033 22.5305 11 22.0627 11Z" fill="black"/>
<path d="M17.0837 16.0429L15.7571 16.8027C15.6784 16.8476 15.5893 16.8696 15.4993 16.8696C15.4093 16.8696 15.3202 16.8476 15.2415 16.8027L13.9149 16.0421L8.0293 19.2794C8.10148 19.6666 8.47086 19.9674 8.9368 19.9674H22.0618C22.5277 19.9674 22.8971 19.6666 22.9693 19.2794L17.0837 16.0429Z" fill="black"/>
</svg>
