<svg width="30" height="30" viewBox="0 0 30 30" fill="none" xmlns="http://www.w3.org/2000/svg">
<circle cx="15" cy="15" r="15" fill="#AFD23E"/>
<path d="M21.6067 18.0316L19.509 15.934C18.7598 15.1848 17.4862 15.4845 17.1865 16.4584C16.9618 17.1327 16.2126 17.5073 15.5383 17.3574C14.04 16.9828 12.0172 15.0349 11.6426 13.4617C11.4178 12.7874 11.8673 12.0382 12.5416 11.8135C13.5155 11.5138 13.8152 10.2402 13.066 9.49102L10.9683 7.39332C10.369 6.86889 9.46997 6.86889 8.94555 7.39332L7.52211 8.81676C6.09867 10.3151 7.67194 14.2858 11.1931 17.8069C14.7142 21.328 18.6849 22.9763 20.1832 21.4779L21.6067 20.0544C22.1311 19.4551 22.1311 18.5561 21.6067 18.0316Z" fill="black"/>
</svg>
