<svg width="30" height="30" viewBox="0 0 30 30" fill="none" xmlns="http://www.w3.org/2000/svg">
<path d="M18.0964 7H11.4095C10.7695 7 10.2529 7.51892 10.2529 8.15772V21.7365C10.2529 22.3747 10.7695 22.8931 11.4095 22.8931H18.0964C18.7352 22.8931 19.2529 22.3747 19.2529 21.7365V8.15772C19.2529 7.51892 18.7352 7 18.0964 7ZM13.1029 7.70309H16.4041C16.4875 7.70309 16.5552 7.82761 16.5552 7.98166C16.5552 8.13571 16.4875 8.26081 16.4041 8.26081H13.1029C13.019 8.26081 12.9524 8.13571 12.9524 7.98166C12.9524 7.82761 13.019 7.70309 13.1029 7.70309ZM14.7535 21.7504C14.3464 21.7504 14.0151 21.4191 14.0151 21.0114C14.0151 20.6037 14.3464 20.2736 14.7535 20.2736C15.1595 20.2736 15.4908 20.6037 15.4908 21.0114C15.4908 21.4191 15.1595 21.7504 14.7535 21.7504ZM18.3865 19.2201H11.1199V8.95347H18.3865V19.2201Z" fill="black"/>
</svg>
