<svg width="30" height="30" viewBox="0 0 30 30" fill="none" xmlns="http://www.w3.org/2000/svg">
<circle cx="15" cy="15" r="15" fill="#AFD23E"/>
<path d="M15 7C18.3084 7 21 9.69158 21 13C21 17.1058 15.6306 23.1333 15.402 23.3879C15.1873 23.6271 14.8124 23.6267 14.598 23.3879C14.3694 23.1333 9 17.1058 9 13C9.00006 9.69158 11.6916 7 15 7ZM15 16.0187C16.6645 16.0187 18.0187 14.6645 18.0187 13C18.0187 11.3354 16.6645 9.98125 15 9.98125C13.3355 9.98125 11.9813 11.3355 11.9813 13C11.9813 14.6645 13.3355 16.0187 15 16.0187Z" fill="black"/>
</svg>
