<svg width="17" height="10" viewBox="0 0 17 10" fill="none" xmlns="http://www.w3.org/2000/svg">
<path d="M11.0879 5.07443L16.7271 8.17444V1.84351L11.0879 5.07443Z" fill="black"/>
<path d="M0 1.84351V8.17444L5.63919 5.07443L0 1.84351Z" fill="black"/>
<path d="M15.6817 0H1.04534C0.52366 0 0.109659 0.338183 0.03125 0.77364L8.36354 5.5473L16.6958 0.77364C16.6174 0.338183 16.2034 0 15.6817 0Z" fill="black"/>
<path d="M10.1302 5.62347L8.6509 6.47074C8.56308 6.52074 8.46376 6.54529 8.3634 6.54529C8.26304 6.54529 8.16372 6.52074 8.0759 6.47074L6.59658 5.62256L0.0332031 9.23257C0.113703 9.66439 0.525613 9.99985 1.0452 9.99985H15.6816C16.2012 9.99985 16.6131 9.66439 16.6936 9.23257L10.1302 5.62347Z" fill="black"/>
</svg>
