<svg width="8" height="10" viewBox="0 0 8 10" fill="none" xmlns="http://www.w3.org/2000/svg">
<path d="M3.62252 0C5.61949 0 7.24414 1.62465 7.24414 3.62161C7.24414 6.09989 4.00314 9.73816 3.86515 9.89183C3.73554 10.0362 3.50925 10.0359 3.37988 9.89183C3.24189 9.73816 0.000890255 6.09989 0.000890255 3.62161C0.000929356 1.62465 1.62556 0 3.62252 0ZM3.62252 5.44374C4.62724 5.44374 5.44463 4.62633 5.44463 3.62161C5.44463 2.61688 4.62722 1.79949 3.62252 1.79949C2.61781 1.79949 1.80042 2.6169 1.80042 3.62163C1.80042 4.62635 2.61781 5.44374 3.62252 5.44374Z" fill="black"/>
</svg>
