<svg width="11" height="11" viewBox="0 0 11 11" fill="none" xmlns="http://www.w3.org/2000/svg">
<path d="M10.1621 7.67493L8.70273 6.21552C8.18151 5.69431 7.29544 5.90281 7.08695 6.58038C6.93059 7.04949 6.40937 7.3101 5.94027 7.20584C4.89784 6.94523 3.49055 5.59006 3.22994 4.49551C3.07357 4.02639 3.38631 3.50517 3.8554 3.34883C4.53298 3.14034 4.74147 2.25427 4.22025 1.73305L2.76084 0.273639C2.34387 -0.0912131 1.71841 -0.0912131 1.35355 0.273639L0.363241 1.26395C-0.627074 2.30639 0.467484 5.06885 2.91721 7.51857C5.36693 9.96829 8.12939 11.115 9.17183 10.0725L10.1621 9.08222C10.527 8.66525 10.527 8.03979 10.1621 7.67493Z" fill="black"/>
</svg>
