<svg width="6" height="11" viewBox="0 0 6 11" fill="none" xmlns="http://www.w3.org/2000/svg">
<path d="M5.22896 0H0.771042C0.344401 0 0 0.345946 0 0.771815V9.82432C0 10.2498 0.344401 10.5954 0.771042 10.5954H5.22896C5.65483 10.5954 6 10.2498 6 9.82432V0.771815C6 0.345946 5.65483 0 5.22896 0ZM1.9 0.468726H4.10077C4.15637 0.468726 4.20154 0.551737 4.20154 0.65444C4.20154 0.757143 4.15637 0.840541 4.10077 0.840541H1.9C1.84402 0.840541 1.79961 0.757143 1.79961 0.65444C1.79961 0.551737 1.84402 0.468726 1.9 0.468726ZM3.00039 9.83359C2.72896 9.83359 2.50811 9.61274 2.50811 9.34093C2.50811 9.06911 2.72896 8.84904 3.00039 8.84904C3.27104 8.84904 3.49189 9.06911 3.49189 9.34093C3.49189 9.61274 3.27104 9.83359 3.00039 9.83359ZM5.42239 8.14672H0.577992V1.30232H5.42239V8.14672Z" fill="black"/>
</svg>
