<svg width="29" height="30" viewBox="0 0 29 30" fill="none" xmlns="http://www.w3.org/2000/svg">
<path d="M28.5598 13.2228C28.4626 12.6133 27.8897 12.1982 27.2802 12.2954C26.6708 12.3926 26.2556 12.9655 26.3528 13.575C26.3539 13.5817 26.355 13.5883 26.3562 13.5949C27.4941 20.2938 22.9861 26.6467 16.2873 27.7847C9.58839 28.9226 3.23542 24.4147 2.09746 17.7158C0.959492 11.0169 5.46755 4.66395 12.1664 3.52599C16.286 2.82619 20.4793 4.26521 23.3011 7.34721L18.3508 8.99654C17.7652 9.19139 17.4485 9.82402 17.6433 10.4096C17.6433 10.4098 17.6434 10.41 17.6435 10.4101C17.8383 10.9957 18.4709 11.3124 19.0566 11.1176C19.0567 11.1176 19.0569 11.1175 19.057 11.1175L25.7617 8.88261C26.2182 8.73058 26.5261 8.30335 26.5261 7.82217V1.11747C26.5261 0.500299 26.0258 0 25.4086 0C24.7914 0 24.2911 0.500299 24.2911 1.11747V5.19948C18.5363 -0.274015 9.434 -0.0459636 3.9605 5.70881C-1.513 11.4636 -1.28501 20.5659 4.46983 26.0395C10.2247 31.5131 19.327 31.285 24.8005 25.5302C27.9217 22.2485 29.3146 17.6884 28.5598 13.2228Z" fill="#AFD23E"/>
</svg>
