<svg width="11" height="10" viewBox="0 0 11 10" fill="none" xmlns="http://www.w3.org/2000/svg">
<path d="M5.92881 5.00231L10.2744 0.656758C10.4246 0.506506 10.4246 0.262909 10.2744 0.112656C10.1241 -0.037551 9.88051 -0.037551 9.73026 0.112656L5.11265 4.73026C4.96245 4.88051 4.96245 5.12411 5.11265 5.27436L9.73026 9.89197C9.88313 10.0396 10.1267 10.0354 10.2744 9.8825C10.4184 9.73337 10.4184 9.49697 10.2744 9.34787L5.92881 5.00231Z" fill="black"/>
<path d="M0.928808 5.00231L5.27436 0.656758C5.42459 0.506506 5.42459 0.262909 5.27436 0.112656C5.12409 -0.037551 4.88051 -0.037551 4.73026 0.112656L0.112655 4.73026C-0.0375527 4.88051 -0.0375528 5.12411 0.112655 5.27436L4.73026 9.89197C4.88313 10.0396 5.12672 10.0354 5.27436 9.8825C5.41837 9.73337 5.41837 9.49697 5.27436 9.34787L0.928808 5.00231Z" fill="black"/>
</svg>
