<svg width="11" height="10" viewBox="0 0 11 10" fill="none" xmlns="http://www.w3.org/2000/svg">
<path d="M4.45791 4.99769L0.112356 9.34324C-0.0378737 9.49349 -0.0378737 9.73709 0.112356 9.88734C0.262631 10.0376 0.506206 10.0376 0.656458 9.88734L5.27406 5.26974C5.42427 5.11949 5.42427 4.87589 5.27406 4.72564L0.656459 0.108033C0.503591 -0.0396037 0.259994 -0.0353646 0.112357 0.117503C-0.0316497 0.266628 -0.0316497 0.503032 0.112357 0.652135L4.45791 4.99769Z" fill="black"/>
<path d="M9.45791 4.99769L5.11236 9.34324C4.96213 9.49349 4.96213 9.73709 5.11236 9.88734C5.26263 10.0376 5.50621 10.0376 5.65646 9.88734L10.2741 5.26974C10.4243 5.11949 10.4243 4.87589 10.2741 4.72564L5.65646 0.108033C5.50359 -0.0396037 5.25999 -0.0353646 5.11236 0.117503C4.96835 0.266628 4.96835 0.503032 5.11236 0.652135L9.45791 4.99769Z" fill="black"/>
</svg>
