<svg width="32" height="28" viewBox="0 0 32 28" fill="none" xmlns="http://www.w3.org/2000/svg">
<path d="M18.8171 12.1651C20.3783 13.7264 20.3783 16.2577 18.8171 17.819C17.2558 19.3803 14.7244 19.3803 13.1632 17.819C11.6019 16.2577 11.6019 13.7264 13.1632 12.1651C14.7244 10.6038 17.2558 10.6038 18.8171 12.1651Z" fill="white"/>
<path d="M27.9845 3.99793H25.2222L23.2223 0H8.75815L6.76013 3.9999L4.0018 4.00481C1.80277 4.00874 0.012637 5.80077 0.0107382 8.00078L0 23.9866C0 26.1915 1.79301 27.9855 3.99793 27.9855H27.9845C30.1894 27.9855 31.9824 26.1925 31.9824 23.9875V7.9958C31.9824 5.79095 30.1894 3.99793 27.9845 3.99793ZM15.9907 22.988C11.5818 22.988 7.99482 19.401 7.99482 14.9922C7.99482 10.5833 11.5818 6.9963 15.9907 6.9963C20.3996 6.9963 23.9866 10.5833 23.9866 14.9922C23.9866 19.401 20.3996 22.988 15.9907 22.988Z" fill="white"/>
</svg>
