<svg width="13" height="15" viewBox="0 0 13 15" fill="none" xmlns="http://www.w3.org/2000/svg">
<path d="M12.6182 7.75102C12.5457 7.42169 12.3851 7.14552 12.1369 6.92237C11.8884 6.69923 11.6025 6.56806 11.2787 6.52898C10.252 6.4174 8.7035 6.36163 6.63304 6.36163C4.56265 6.36163 3.0169 6.41743 1.99566 6.52898C1.6665 6.56806 1.37912 6.69923 1.1335 6.92237C0.887926 7.1456 0.72609 7.42181 0.647927 7.75102C0.502861 8.39846 0.430298 9.37499 0.430298 10.6808C0.430298 12.0089 0.502861 12.9855 0.647927 13.6106C0.720578 13.9397 0.881036 14.2161 1.12936 14.4392C1.37769 14.6624 1.66369 14.7907 1.9873 14.8242C3.0142 14.9414 4.56282 15 6.6331 15C8.70323 15 10.2521 14.9414 11.2787 14.8242C11.6024 14.7907 11.887 14.6624 12.1326 14.4392C12.3782 14.2161 12.54 13.9397 12.6181 13.6106C12.7632 12.9632 12.8358 11.9866 12.8358 10.6808C12.8358 9.35271 12.7631 8.37606 12.6182 7.75102ZM3.97135 8.59662H3.07571V13.3594H2.23871V8.59662H1.35974V7.80981H3.97138V8.59662H3.97135ZM6.23135 13.3594H5.48638V12.9073C5.18504 13.2478 4.90033 13.4179 4.63248 13.4179C4.37583 13.4179 4.21396 13.3146 4.14709 13.1082C4.1025 12.9743 4.08007 12.7705 4.08007 12.4971V9.2243H4.82504V12.2712C4.82504 12.4497 4.82786 12.5474 4.83349 12.5641C4.85023 12.6813 4.90878 12.7399 5.00928 12.7399C5.15992 12.7399 5.31906 12.6227 5.4864 12.3883V9.2243H6.23138V13.3594H6.23135ZM9.07736 12.1205C9.07736 12.5278 9.05229 12.807 9.00231 12.9577C8.9072 13.2645 8.70924 13.4179 8.40794 13.4179C8.14006 13.4179 7.88062 13.2645 7.62936 12.9577V13.3595H6.8845V7.80981H7.62936V9.62622C7.86945 9.32503 8.12883 9.17434 8.40794 9.17434C8.70924 9.17434 8.9072 9.33063 9.00231 9.64308C9.05226 9.78814 9.07736 10.0643 9.07736 10.4717V12.1205ZM11.9066 11.4342H10.4084V12.1624C10.4084 12.5475 10.5366 12.7399 10.7933 12.7399C10.9774 12.7399 11.0891 12.6396 11.1281 12.4385C11.1392 12.3827 11.1449 12.2126 11.1449 11.928H11.9066V12.0368C11.9066 12.3103 11.9009 12.4721 11.8898 12.5224C11.8732 12.6729 11.8148 12.8236 11.7141 12.9743C11.5132 13.2701 11.2116 13.4179 10.8099 13.4179C10.425 13.4179 10.1236 13.2756 9.9059 12.9911C9.74415 12.7846 9.66329 12.461 9.66329 12.0201V10.5719C9.66329 10.1311 9.74133 9.8074 9.89745 9.60092C10.1152 9.31638 10.4137 9.1741 10.7933 9.1741C11.1673 9.1741 11.4633 9.31638 11.6806 9.60092C11.8315 9.8074 11.9066 10.1311 11.9066 10.5719V11.4342Z" fill="#9A9C9E"/>
<path d="M8.00581 9.85217C7.8774 9.85217 7.75197 9.91377 7.62916 10.0364V12.5558C7.75194 12.6785 7.8774 12.7399 8.00581 12.7399C8.22332 12.7399 8.33242 12.5531 8.33242 12.179V10.413C8.33239 10.0391 8.22356 9.85217 8.00581 9.85217Z" fill="#9A9C9E"/>
<path d="M10.785 9.85217C10.5339 9.85217 10.4083 10.042 10.4083 10.4212V10.8063H11.1616V10.4212C11.1616 10.0418 11.036 9.85217 10.785 9.85217Z" fill="#9A9C9E"/>
<path d="M3.48608 3.33985V5.60834H4.32309V3.33985L5.33577 0H4.482L3.91293 2.20148L3.31856 0H2.43133C2.58759 0.468799 2.76896 0.990517 2.97545 1.56533C3.23776 2.33537 3.40786 2.92699 3.48608 3.33985Z" fill="#9A9C9E"/>
<path d="M6.4574 5.66696C6.84246 5.66696 7.13814 5.52465 7.34462 5.24006C7.50095 5.03357 7.57899 4.7043 7.57899 4.25236V2.78744C7.57899 2.34107 7.50074 2.01453 7.34462 1.80804C7.13814 1.52344 6.84246 1.38113 6.4574 1.38113C6.08341 1.38113 5.79041 1.52344 5.57843 1.80804C5.42226 2.01453 5.34412 2.34107 5.34412 2.78744V4.25233C5.34412 4.6987 5.42217 5.028 5.57843 5.24003C5.79049 5.52465 6.08338 5.66696 6.4574 5.66696ZM6.0974 2.63675C6.0974 2.25168 6.2174 2.05915 6.4574 2.05915C6.6974 2.05915 6.81728 2.25168 6.81728 2.63675V4.39452C6.81728 4.78527 6.6974 4.98045 6.4574 4.98045C6.2174 4.98045 6.0974 4.78516 6.0974 4.39452V2.63675Z" fill="#9A9C9E"/>
<path d="M8.75911 5.66697C9.03831 5.66697 9.32577 5.49397 9.62145 5.14789V5.60828H10.3832V1.4314H9.62145V4.62055C9.45398 4.86055 9.29505 4.98043 9.14418 4.98043C9.04365 4.98043 8.98504 4.91906 8.96839 4.79631C8.96279 4.78514 8.95997 4.68739 8.95997 4.5033V1.4314H8.19825V4.72946C8.19825 5.014 8.22074 5.22318 8.26528 5.3572C8.3379 5.56369 8.50246 5.66697 8.75911 5.66697Z" fill="#9A9C9E"/>
</svg>
