<svg width="16" height="15" viewBox="0 0 16 15" fill="none" xmlns="http://www.w3.org/2000/svg">
<path d="M15.1184 4.41004C15.0833 3.61303 14.9544 3.0651 14.7698 2.5903C14.5793 2.08632 14.2863 1.63511 13.9024 1.26001C13.5273 0.879078 13.0731 0.583076 12.5749 0.395585C12.0974 0.210956 11.5523 0.0820702 10.7553 0.0469299C9.95237 0.00881367 9.69746 0 7.66093 0C5.62441 0 5.3695 0.00881367 4.56952 0.0439539C3.77251 0.0790941 3.22458 0.208094 2.7499 0.392609C2.2458 0.583076 1.79459 0.876102 1.41949 1.26001C1.03856 1.63511 0.742674 2.0893 0.555069 2.58744C0.37044 3.0651 0.241555 3.61006 0.206415 4.40706C0.168299 5.21002 0.159485 5.46493 0.159485 7.50147C0.159485 9.538 0.168299 9.79291 0.203439 10.5929C0.238579 11.3899 0.367579 11.9378 0.552208 12.4126C0.742674 12.9166 1.03856 13.3678 1.41949 13.7429C1.79459 14.1239 2.24878 14.4199 2.74692 14.6073C3.22458 14.792 3.76953 14.9209 4.56666 14.956C5.36652 14.9913 5.62155 15 7.65807 15C9.6946 15 9.94951 14.9913 10.7495 14.956C11.5465 14.9209 12.0944 14.792 12.5691 14.6073C13.5772 14.2176 14.3742 13.4206 14.7639 12.4126C14.9485 11.935 15.0775 11.3899 15.1126 10.5929C15.1477 9.79291 15.1565 9.538 15.1565 7.50147C15.1565 5.46493 15.1536 5.21002 15.1184 4.41004ZM13.7677 10.5343C13.7354 11.2668 13.6123 11.6624 13.5098 11.9262C13.2577 12.5796 12.7391 13.0983 12.0856 13.3503C11.8219 13.4529 11.4234 13.5759 10.6937 13.6081C9.90258 13.6433 9.6653 13.652 7.66391 13.652C5.66252 13.652 5.42227 13.6433 4.63396 13.6081C3.9014 13.5759 3.50581 13.4529 3.24209 13.3503C2.9169 13.2301 2.6209 13.0397 2.38064 12.7906C2.13157 12.5473 1.9411 12.2543 1.82092 11.9291C1.71836 11.6654 1.59531 11.2668 1.56315 10.5373C1.52789 9.74609 1.51919 9.50869 1.51919 7.5073C1.51919 5.50591 1.52789 5.26565 1.56315 4.47746C1.59531 3.74489 1.71836 3.34931 1.82092 3.08559C1.9411 2.76028 2.13157 2.46439 2.38362 2.22402C2.62674 1.97495 2.91976 1.78448 3.24506 1.66441C3.50879 1.56185 3.90735 1.4388 4.63694 1.40652C5.4281 1.37138 5.6655 1.36257 7.66677 1.36257C9.67113 1.36257 9.90842 1.37138 10.6967 1.40652C11.4293 1.4388 11.8249 1.56185 12.0886 1.66441C12.4138 1.78448 12.7098 1.97495 12.95 2.22402C13.1991 2.46726 13.3896 2.76028 13.5098 3.08559C13.6123 3.34931 13.7354 3.74776 13.7677 4.47746C13.8028 5.26863 13.8116 5.50591 13.8116 7.5073C13.8116 9.50869 13.8028 9.74311 13.7677 10.5343Z" fill="#AFD23E"/>
<path d="M7.66099 3.64816C5.53369 3.64816 3.8077 5.37404 3.8077 7.50146C3.8077 9.62888 5.53369 11.3548 7.66099 11.3548C9.78841 11.3548 11.5143 9.62888 11.5143 7.50146C11.5143 5.37404 9.78841 3.64816 7.66099 3.64816ZM7.66099 10.001C6.28091 10.001 5.16146 8.88166 5.16146 7.50146C5.16146 6.12126 6.28091 5.00192 7.66099 5.00192C9.04119 5.00192 10.1605 6.12126 10.1605 7.50146C10.1605 8.88166 9.04119 10.001 7.66099 10.001Z" fill="#AFD23E"/>
<path d="M12.5663 3.49582C12.5663 3.9926 12.1635 4.39539 11.6666 4.39539C11.1698 4.39539 10.767 3.9926 10.767 3.49582C10.767 2.99894 11.1698 2.59625 11.6666 2.59625C12.1635 2.59625 12.5663 2.99894 12.5663 3.49582Z" fill="#AFD23E"/>
</svg>
